Coordinates
version=1
nRows=43
nColumns=12
inDegrees=yes

Units are S.I. units (second, meters, Newtons, ...)
Angles are in degrees

endheader
time	SC_y	SC_z	SC_x	AC_y	AC_z	AC_x	GH_y	GH_z	GH_yy	EL_x	PS_y
       0.0              -18.64          14.38          69.32          69.65         -7.577          2.903          35.92          65.05         -48.84          136.8          37.68
   0.02524              -18.64          14.39          69.32          69.64         -7.575          2.904          35.93          65.04         -48.84          136.8          37.68
   0.05048              -18.64          14.39          69.32          69.64         -7.574          2.905          35.95          65.04         -48.85          136.8          37.69
   0.07572              -18.65          14.39          69.32          69.64         -7.572          2.906          35.96          65.03         -48.85          136.8          37.69
     0.101              -18.65          14.39          69.32          69.63         -7.569          2.907          35.97          65.02         -48.86          136.7          37.69
    0.1262              -18.65           14.4          69.32          69.63         -7.567          2.908          35.99          65.01         -48.86          136.7           37.7
    0.1514              -18.66           14.4          69.32          69.62         -7.565          2.909           36.0           65.0         -48.87          136.7           37.7
    0.1767              -18.66           14.4          69.32          69.62         -7.562           2.91          36.02          64.98         -48.87          136.7          37.71
    0.2019              -18.67          14.41          69.32          69.61         -7.559          2.911          36.04          64.97         -48.88          136.7          37.71
    0.2272              -18.67          14.41          69.32           69.6         -7.556          2.913          36.06          64.96         -48.89          136.7          37.71
    0.2524              -18.67          14.41          69.32           69.6         -7.553          2.914          36.08          64.94          -48.9          136.7          37.72
    0.2777              -18.68          14.42          69.32          69.59          -7.55          2.916           36.1          64.93          -48.9          136.7          37.72
    0.3029              -18.69          14.42          69.32          69.58         -7.546          2.917          36.13          64.91         -48.91          136.6          37.73
    0.3281              -18.69          14.43          69.32          69.57         -7.542          2.919          36.16          64.89         -48.92          136.6          37.74
    0.3534               -18.7          14.43          69.32          69.56         -7.537          2.921          36.18          64.87         -48.93          136.6          37.74
    0.3786              -18.71          14.44          69.32          69.56         -7.533          2.923          36.22          64.85         -48.94          136.6          37.75
    0.4039              -18.71          14.44          69.32          69.54         -7.527          2.926          36.25          64.83         -48.95          136.6          37.76
    0.4291              -18.72          14.45          69.32          69.53         -7.522          2.928          36.29           64.8         -48.97          136.5          37.77
    0.4543              -18.73          14.46          69.31          69.52         -7.516          2.931          36.33          64.78         -48.98          136.5          37.78
    0.4796              -18.74          14.47          69.31          69.51         -7.509          2.934          36.37          64.75          -49.0          136.5          37.79
    0.5048              -18.75          14.47          69.31          69.49         -7.502          2.937          36.42          64.71         -49.01          136.5           37.8
    0.5301              -18.76          14.48          69.31          69.47         -7.493          2.941          36.47          64.68         -49.03          136.4          37.81
    0.5553              -18.78           14.5          69.31          69.46         -7.484          2.945          36.53          64.64         -49.05          136.4          37.82
    0.5806              -18.79          14.51          69.31          69.43         -7.475           2.95           36.6          64.59         -49.08          136.3          37.84
    0.6058              -18.81          14.52          69.31          69.41         -7.463          2.954          36.67          64.54          -49.1          136.3          37.86
     0.631              -18.83          14.54           69.3          69.39         -7.451           2.96          36.75          64.49         -49.13          136.2          37.87
    0.6563              -18.85          14.55           69.3          69.36         -7.437          2.966          36.84          64.43         -49.16          136.2           37.9
    0.6815              -18.87          14.57           69.3          69.33         -7.422          2.973          36.95          64.36          -49.2          136.1          37.92
    0.7068               -18.9          14.59           69.3          69.29         -7.404          2.981          37.06          64.28         -49.24          136.0          37.95
     0.732              -18.93          14.62          69.29          69.25         -7.384           2.99          37.19          64.19         -49.29          136.0          37.98
    0.7572              -18.96          14.64          69.29           69.2         -7.362            3.0          37.34          64.09         -49.34          135.9          38.01
    0.7825               -19.0          14.67          69.28          69.15         -7.335          3.012          37.51          63.97          -49.4          135.7          38.05
    0.8077              -19.04          14.71          69.28          69.08         -7.305          3.026          37.71          63.84         -49.47          135.6           38.1
     0.833               -19.1          14.75          69.27          69.01          -7.27          3.042          37.94          63.68         -49.55          135.5          38.15
    0.8582              -19.16           14.8          69.26          68.93         -7.229           3.06          38.21           63.5         -49.65          135.3          38.21
    0.8835              -19.23          14.86          69.26          68.83         -7.181          3.082          38.53          63.29         -49.76          135.1          38.29
    0.9087              -19.32          14.93          69.25          68.71         -7.123          3.108          38.91          63.03         -49.89          134.8          38.38
    0.9339              -19.42          15.01          69.23          68.57         -7.055          3.139          39.36          62.72         -50.05          134.5          38.48
    0.9592              -19.54          15.11          69.22          68.39         -6.971          3.176          39.91          62.35         -50.24          134.2          38.61
    0.9844               -19.7          15.24           69.2          68.18          -6.87          3.222          40.58           61.9         -50.48          133.8          38.76
      1.01              -19.88          15.39          69.18          67.92         -6.744          3.278          41.41          61.34         -50.77          133.2          38.95
     1.035              -20.12          15.58          69.15           67.6         -6.587          3.349          42.44          60.64         -51.13          132.6          39.19
      1.06              -20.41          15.81          69.12          67.19          -6.39          3.438          43.74          59.76         -51.59          131.7           39.5
